<svg xmlns="http://www.w3.org/2000/svg" xmlns:xlink="http://www.w3.org/1999/xlink" width="58" height="58" viewBox="0 0 58 58">
    <defs>
        <rect id="b" width="48" height="48" rx="24"/>
        <filter id="a" width="135.4%" height="135.4%" x="-17.7%" y="-13.5%" filterUnits="objectBoundingBox">
            <feMorphology in="SourceAlpha" operator="dilate" radius=".5" result="shadowSpreadOuter1"/>
            <feOffset dy="2" in="shadowSpreadOuter1" result="shadowOffsetOuter1"/>
            <feGaussianBlur in="shadowOffsetOuter1" result="shadowBlurOuter1" stdDeviation="2"/>
            <feComposite in="shadowBlurOuter1" in2="SourceAlpha" operator="out" result="shadowBlurOuter1"/>
            <feColorMatrix in="shadowBlurOuter1" values="0 0 0 0 0 0 0 0 0 0 0 0 0 0 0 0 0 0 0.04 0"/>
        </filter>
    </defs>
    <g fill="none" fill-rule="evenodd">
        <g transform="translate(5 3)">
            <use fill="#000" filter="url(#a)" xlink:href="#b"/>
            <rect width="47" height="47" x=".5" y=".5" fill="#FFF" stroke="#FEFEFE" stroke-linejoin="square" rx="23.5"/>
        </g>
        <path fill="#464646" d="M29 31.571a5.121 5.121 0 0 0 5.126-5.142l.017-10.286A5.136 5.136 0 0 0 29 11a5.136 5.136 0 0 0-5.143 5.143v10.286A5.136 5.136 0 0 0 29 31.57zm9.086-5.142c0 5.142-4.355 8.742-9.086 8.742s-9.086-3.6-9.086-8.742H17c0 5.862 4.663 10.68 10.286 11.52v5.622h3.428V37.95C36.337 37.126 41 32.29 41 26.429h-2.914z"/>
        <path fill="#464646" d="M42.135 14.705l1.968 2.264-25.66 22.306-1.968-2.264z"/>
        <path fill="#FFF" d="M40.472 12.791l1.968 2.264-25.66 22.306-1.968-2.264z"/>
    </g>
</svg>
